<svg id="svg" xmlns="http://www.w3.org/2000/svg" xmlns:xlink="http://www.w3.org/1999/xlink" width="358" height="138" viewBox="23, 12, 358, 138"><g id="svgg"><path id="path0" d="M111.813 13.766 C 111.760 13.819,110.796 13.952,109.671 14.062 C 108.545 14.171,107.229 14.347,106.745 14.452 C 106.261 14.556,105.601 14.697,105.279 14.765 C 104.956 14.832,104.516 14.958,104.301 15.043 C 104.086 15.128,103.294 15.395,102.542 15.637 C 94.485 18.221,87.804 24.832,84.262 33.724 C 83.403 35.880,82.697 39.516,82.395 43.335 C 82.199 45.817,82.134 45.748,84.699 45.748 C 87.849 45.748,91.017 45.244,94.135 44.246 C 101.177 41.993,107.276 37.132,110.770 30.987 C 111.634 29.468,112.267 28.137,113.001 26.295 C 114.085 23.576,114.654 20.219,114.659 16.520 L 114.663 13.783 113.286 13.726 C 112.528 13.695,111.865 13.713,111.813 13.766 M66.862 17.619 C 62.950 18.252,60.169 20.666,58.445 24.927 C 57.039 28.400,58.267 33.159,61.280 35.920 C 67.190 41.336,75.751 39.211,78.798 31.574 C 79.495 29.826,79.497 26.617,78.801 24.927 C 76.533 19.417,72.189 16.758,66.862 17.619 M109.532 19.208 C 109.702 19.710,108.691 23.683,107.927 25.513 C 105.217 32.005,99.931 37.038,93.451 39.293 C 93.074 39.424,92.590 39.600,92.375 39.685 C 91.585 39.995,88.710 40.665,88.169 40.665 C 87.736 40.665,87.660 40.147,87.952 39.179 C 88.046 38.867,88.234 38.128,88.369 37.537 C 88.677 36.192,90.010 32.778,90.583 31.867 C 90.820 31.491,91.137 30.942,91.286 30.648 C 91.436 30.355,91.700 29.959,91.874 29.769 C 92.048 29.579,92.406 29.115,92.669 28.739 C 94.681 25.865,98.285 22.909,101.857 21.203 C 102.449 20.920,103.085 20.609,103.272 20.511 C 103.459 20.413,103.783 20.332,103.994 20.332 C 104.204 20.332,104.430 20.244,104.497 20.137 C 104.563 20.029,104.827 19.941,105.083 19.941 C 105.339 19.941,105.597 19.863,105.656 19.767 C 105.715 19.672,106.094 19.537,106.499 19.468 C 106.903 19.399,107.630 19.269,108.113 19.180 C 109.400 18.940,109.442 18.941,109.532 19.208 M71.002 22.988 C 76.573 25.858,74.794 33.924,68.598 33.884 C 67.706 33.878,66.936 33.778,66.810 33.652 C 66.688 33.531,66.438 33.431,66.254 33.431 C 65.769 33.431,63.845 31.517,63.364 30.555 C 61.105 26.043,66.519 20.679,71.002 22.988 M58.456 51.042 C 55.595 51.407,52.436 52.321,49.267 53.701 C 47.613 54.421,47.392 54.546,44.673 56.288 C 40.905 58.701,35.393 64.590,32.851 68.915 C 31.383 71.414,29.267 75.689,28.739 77.224 C 28.610 77.600,28.429 78.084,28.338 78.299 C 26.006 83.795,24.671 96.722,25.804 102.835 C 25.893 103.319,26.073 104.374,26.203 105.181 C 26.634 107.862,28.070 112.860,29.068 115.152 C 29.628 116.438,30.150 117.595,30.324 117.937 C 30.420 118.126,30.587 118.456,30.694 118.671 C 32.395 122.072,34.284 125.019,36.593 127.871 C 39.029 130.880,40.606 132.569,42.369 134.052 C 43.098 134.666,43.739 135.217,43.793 135.277 C 44.195 135.727,47.821 138.612,47.983 138.612 C 48.028 138.612,48.709 139.038,49.497 139.558 C 51.538 140.906,53.033 141.734,55.132 142.675 C 55.616 142.892,56.584 143.328,57.283 143.644 C 57.981 143.961,58.861 144.330,59.238 144.466 C 59.614 144.601,60.098 144.788,60.313 144.880 C 61.184 145.254,63.394 145.893,65.982 146.521 C 68.547 147.142,69.260 147.274,72.863 147.793 C 79.598 148.764,91.512 147.364,97.849 144.858 C 99.464 144.219,100.388 143.788,103.320 142.306 C 106.394 140.752,110.718 138.185,111.384 137.520 C 111.539 137.365,111.987 136.997,112.380 136.703 C 112.772 136.409,113.314 135.982,113.585 135.755 C 120.460 129.975,124.766 124.172,128.656 115.445 C 129.416 113.740,131.132 107.626,131.564 105.083 C 131.691 104.330,131.875 103.275,131.971 102.737 C 132.626 99.081,132.625 91.669,131.969 88.172 C 131.235 84.255,130.606 81.731,129.605 78.690 C 128.714 75.982,128.820 76.239,127.385 73.314 C 120.983 60.265,111.121 52.505,99.047 51.015 C 95.764 50.610,89.686 51.015,87.390 51.793 C 87.121 51.884,86.505 52.072,86.022 52.211 C 85.538 52.349,85.058 52.536,84.956 52.624 C 84.854 52.713,84.658 52.786,84.521 52.786 C 84.265 52.786,82.161 53.690,80.938 54.325 C 78.714 55.481,76.122 57.208,74.766 58.436 C 72.225 60.740,71.580 61.376,70.582 62.561 C 69.993 63.260,69.465 63.876,69.409 63.930 C 69.130 64.195,66.397 68.193,65.935 69.013 C 65.723 69.389,65.319 70.093,65.037 70.577 C 64.526 71.455,63.849 72.823,63.102 74.487 C 61.176 78.777,59.477 85.559,59.037 90.714 C 58.941 91.843,58.802 93.322,58.728 94.001 C 58.393 97.101,59.728 99.086,61.777 98.534 C 63.317 98.120,63.553 97.546,63.750 93.744 C 63.946 89.977,64.488 86.399,65.283 83.627 C 65.399 83.223,65.571 82.608,65.666 82.258 C 65.882 81.463,66.437 79.795,66.658 79.277 C 66.750 79.062,67.112 78.138,67.462 77.224 C 68.783 73.780,70.975 69.988,73.118 67.434 C 75.495 64.602,78.674 61.399,79.114 61.392 C 79.239 61.390,79.371 61.315,79.407 61.227 C 79.667 60.582,83.981 58.173,86.217 57.423 C 87.603 56.958,88.170 56.797,90.029 56.339 C 96.382 54.773,105.809 56.772,111.072 60.802 C 114.190 63.188,115.566 64.558,118.383 68.074 C 120.110 70.229,122.527 74.429,123.649 77.224 C 123.844 77.708,124.167 78.477,124.367 78.932 C 124.567 79.388,124.731 79.889,124.731 80.045 C 124.731 80.201,124.819 80.383,124.927 80.450 C 125.034 80.516,125.122 80.742,125.122 80.953 C 125.122 81.163,125.202 81.487,125.299 81.674 C 125.396 81.861,125.582 82.410,125.712 82.893 C 125.843 83.377,126.018 83.993,126.101 84.262 C 126.185 84.531,126.358 85.279,126.486 85.924 C 126.613 86.569,126.794 87.449,126.886 87.879 C 127.437 90.439,127.575 98.965,127.111 101.760 C 126.611 104.766,126.517 105.284,126.329 106.061 C 126.225 106.491,126.076 107.151,125.999 107.527 C 124.304 115.747,116.477 127.786,109.770 132.490 C 106.377 134.870,104.618 136.065,103.959 136.438 C 103.556 136.666,102.896 137.042,102.493 137.274 C 100.120 138.637,98.563 139.301,94.526 140.670 C 92.801 141.255,92.007 141.484,90.762 141.755 C 90.305 141.854,89.514 142.028,89.003 142.141 C 86.057 142.794,82.698 143.113,82.698 142.740 C 82.698 142.629,83.116 142.298,83.627 142.004 C 86.770 140.196,89.951 137.184,92.994 133.138 C 94.091 131.679,95.827 128.460,96.579 126.491 C 96.722 126.114,96.897 125.718,96.967 125.611 C 97.037 125.503,97.209 125.020,97.348 124.536 C 97.487 124.052,97.669 123.480,97.752 123.265 C 97.835 123.050,98.011 122.478,98.143 121.994 C 98.275 121.510,98.454 120.894,98.541 120.626 C 98.627 120.357,98.757 119.741,98.829 119.257 C 98.900 118.773,99.038 117.849,99.135 117.204 C 99.828 112.577,99.669 106.152,98.743 101.369 C 98.251 98.826,98.178 98.513,97.576 96.334 C 96.685 93.113,93.787 86.474,92.319 84.291 C 92.127 84.006,91.842 83.509,91.684 83.187 C 91.527 82.864,91.344 82.556,91.277 82.502 C 91.210 82.449,90.864 81.921,90.508 81.329 C 90.152 80.738,89.497 79.770,89.053 79.179 C 88.610 78.587,87.916 77.664,87.513 77.126 C 84.408 72.993,80.300 68.817,79.338 68.817 C 78.897 68.817,76.442 71.827,76.442 72.367 C 76.442 72.482,77.480 73.599,78.748 74.851 C 80.016 76.102,81.643 77.874,82.363 78.788 C 83.082 79.702,83.854 80.670,84.076 80.938 C 86.193 83.492,89.711 89.672,91.533 94.037 C 91.645 94.306,91.814 94.679,91.909 94.865 C 92.004 95.052,92.082 95.377,92.082 95.587 C 92.082 95.797,92.170 96.023,92.278 96.090 C 92.385 96.156,92.473 96.420,92.473 96.676 C 92.473 96.933,92.551 97.190,92.647 97.250 C 92.743 97.309,92.868 97.644,92.926 97.994 C 92.984 98.345,93.131 99.027,93.252 99.511 C 96.116 110.947,94.842 120.890,89.400 129.582 C 87.358 132.845,82.979 137.000,80.156 138.354 C 74.321 141.155,69.790 141.851,64.614 140.744 C 62.366 140.263,57.769 138.595,56.305 137.730 C 56.036 137.571,55.332 137.202,54.741 136.909 C 54.150 136.617,53.636 136.309,53.601 136.224 C 53.565 136.140,53.451 136.070,53.347 136.070 C 52.003 136.070,43.710 128.841,40.679 125.026 C 37.197 120.645,33.356 113.428,32.250 109.189 C 32.165 108.866,31.970 108.118,31.815 107.527 C 31.536 106.456,31.255 105.131,30.896 103.177 C 30.140 99.064,30.243 90.983,31.096 87.390 C 31.211 86.906,31.380 86.114,31.472 85.630 C 31.564 85.147,31.740 84.399,31.864 83.969 C 31.987 83.539,32.163 82.879,32.253 82.502 C 32.865 79.952,35.174 74.677,36.590 72.594 C 36.896 72.145,37.146 71.683,37.146 71.568 C 37.146 71.453,37.234 71.359,37.341 71.359 C 37.449 71.359,37.537 71.267,37.537 71.154 C 37.537 70.957,39.197 68.406,39.855 67.594 C 44.915 61.338,50.316 57.753,56.598 56.482 C 61.280 55.534,63.331 55.506,67.613 56.335 L 68.658 56.537 69.569 55.657 C 70.069 55.173,71.002 54.297,71.641 53.710 L 72.802 52.644 72.129 52.333 C 69.482 51.110,62.841 50.483,58.456 51.042 M204.203 68.613 L 201.466 68.719 201.466 72.141 L 201.466 75.562 205.083 75.562 L 208.700 75.562 208.760 73.021 C 208.793 71.623,208.765 70.017,208.697 69.453 L 208.574 68.426 207.757 68.467 C 207.308 68.489,205.709 68.555,204.203 68.613 M279.179 91.691 L 279.179 114.956 282.307 114.956 L 285.435 114.956 285.435 91.926 C 285.435 74.274,285.380 68.841,285.200 68.661 C 285.039 68.499,284.062 68.426,282.072 68.426 L 279.179 68.426 279.179 91.691 M169.404 69.047 C 168.974 69.151,168.352 69.317,168.021 69.417 C 167.691 69.517,167.251 69.600,167.044 69.600 C 166.703 69.601,163.060 71.329,161.248 72.349 C 159.849 73.137,157.115 75.942,155.797 77.942 C 153.528 81.383,152.786 83.427,151.906 88.648 C 151.490 91.116,151.707 95.194,152.436 98.631 C 152.595 99.384,152.771 100.287,152.826 100.637 C 152.882 100.988,153.005 101.323,153.101 101.382 C 153.196 101.441,153.275 101.652,153.275 101.850 C 153.275 102.186,153.484 102.669,154.507 104.692 C 156.449 108.536,160.350 112.287,163.914 113.739 C 164.568 114.005,165.279 114.294,165.494 114.381 C 170.182 116.278,176.629 116.176,181.222 114.131 C 183.057 113.315,186.467 110.411,187.235 109.012 C 187.622 108.306,188.072 108.778,188.097 109.916 C 188.110 110.484,188.176 111.828,188.244 112.903 L 188.368 114.858 191.172 114.913 L 193.976 114.967 193.837 114.144 C 193.760 113.691,193.691 108.413,193.684 102.415 C 193.672 93.057,193.629 91.493,193.385 91.400 C 193.013 91.257,178.479 91.287,176.421 91.435 L 174.837 91.549 174.719 93.906 C 174.559 97.070,173.883 96.774,181.279 96.774 L 187.535 96.774 187.425 97.898 C 187.324 98.940,187.224 99.437,186.750 101.274 C 186.115 103.730,183.601 107.137,181.704 108.113 C 181.390 108.274,181.090 108.450,181.036 108.504 C 180.982 108.559,180.674 108.723,180.352 108.870 C 180.029 109.016,179.613 109.214,179.426 109.309 C 179.239 109.404,178.914 109.482,178.704 109.482 C 178.494 109.482,178.276 109.557,178.219 109.649 C 177.829 110.280,171.337 110.306,169.795 109.684 C 169.580 109.597,169.008 109.408,168.524 109.264 C 164.914 108.187,159.531 102.543,159.531 99.835 C 159.531 99.670,159.455 99.487,159.362 99.430 C 159.269 99.372,159.140 99.037,159.075 98.685 C 159.011 98.333,158.823 97.429,158.658 96.677 C 158.319 95.132,158.241 89.855,158.537 88.503 C 158.636 88.052,158.826 87.155,158.960 86.510 C 159.093 85.865,159.277 85.254,159.367 85.152 C 159.457 85.049,159.531 84.820,159.531 84.641 C 159.531 83.631,161.525 80.467,163.226 78.779 C 165.672 76.352,167.877 75.162,170.870 74.656 C 174.132 74.105,176.244 74.260,178.983 75.255 C 179.571 75.468,181.316 76.319,181.427 76.446 C 181.481 76.508,181.833 76.772,182.209 77.033 C 183.776 78.120,185.419 80.273,186.235 82.307 C 187.080 84.414,186.771 84.235,188.954 83.883 C 193.349 83.175,193.082 83.322,192.755 81.790 C 191.681 76.760,186.644 71.483,181.418 69.912 C 180.299 69.576,179.517 69.362,178.690 69.164 C 177.551 68.892,170.422 68.802,169.404 69.047 M224.731 72.841 C 224.301 72.975,223.201 73.366,222.287 73.710 C 221.373 74.054,220.429 74.380,220.190 74.433 C 219.759 74.530,219.753 74.575,219.701 78.468 L 219.648 82.405 216.661 82.459 L 213.674 82.513 213.728 85.000 L 213.783 87.488 216.520 87.525 C 218.025 87.545,219.367 87.567,219.501 87.574 C 219.694 87.583,219.746 89.734,219.746 97.644 C 219.746 105.853,219.799 107.906,220.033 108.804 C 221.420 114.131,225.277 115.971,233.081 115.029 C 234.422 114.867,234.478 114.734,234.314 112.099 L 234.172 109.827 233.361 109.935 C 232.916 109.994,232.084 110.105,231.514 110.182 C 228.926 110.529,226.632 109.337,226.191 107.414 C 226.064 106.861,225.925 92.762,225.998 87.830 C 226.001 87.642,226.933 87.586,229.998 87.586 C 232.196 87.586,234.035 87.520,234.085 87.439 C 234.134 87.358,234.204 86.237,234.240 84.946 L 234.304 82.600 230.202 82.502 L 226.100 82.405 226.047 77.586 C 225.990 72.273,226.035 72.435,224.731 72.841 M255.425 81.960 C 254.780 82.060,254.099 82.223,253.913 82.322 C 253.726 82.421,253.443 82.502,253.284 82.502 C 252.188 82.502,247.507 85.863,247.507 86.650 C 247.507 86.848,247.017 87.390,246.837 87.390 C 246.776 87.390,246.725 86.290,246.725 84.946 L 246.725 82.502 243.711 82.502 C 241.531 82.502,240.676 82.568,240.619 82.738 C 240.466 83.196,240.676 126.971,240.831 127.126 C 240.918 127.213,242.257 127.259,243.808 127.229 L 246.628 127.175 246.679 118.719 C 246.711 113.308,246.799 110.264,246.923 110.264 C 247.029 110.264,247.116 110.336,247.116 110.423 C 247.116 111.312,252.167 114.956,253.398 114.956 C 253.586 114.956,253.788 115.033,253.846 115.126 C 253.952 115.299,255.066 115.479,257.185 115.664 C 258.264 115.759,260.201 115.497,262.253 114.980 C 270.086 113.005,274.280 102.686,271.520 92.180 C 269.638 85.017,262.973 80.785,255.425 81.960 M344.575 81.957 C 341.943 82.587,341.700 82.683,340.149 83.712 C 339.119 84.395,337.634 85.893,337.634 86.250 C 337.634 86.337,337.484 86.583,337.301 86.797 C 336.790 87.395,336.663 86.963,336.660 84.604 L 336.657 82.502 333.625 82.502 L 330.594 82.502 330.644 98.680 L 330.694 114.858 333.757 114.912 L 336.820 114.966 336.900 104.550 C 336.980 94.146,337.005 93.741,337.661 92.427 C 337.754 92.240,337.830 91.993,337.830 91.879 C 337.830 91.119,340.281 88.361,341.438 87.819 C 341.711 87.691,342.169 87.476,342.454 87.341 C 344.262 86.489,348.216 87.250,349.668 88.730 C 351.617 90.715,351.711 91.423,351.711 104.115 L 351.711 114.956 354.721 114.956 L 357.732 114.956 357.823 104.643 C 357.923 93.455,357.898 93.715,359.071 91.483 C 359.378 90.898,359.717 90.313,359.824 90.181 C 359.932 90.050,360.283 89.594,360.606 89.169 C 362.683 86.432,368.230 86.334,370.557 88.994 C 371.023 89.527,371.513 90.330,371.646 90.778 C 371.779 91.226,371.989 91.813,372.112 92.082 C 372.270 92.428,372.347 95.833,372.374 103.715 L 372.411 114.858 375.453 114.912 L 378.495 114.966 378.495 103.573 C 378.495 91.524,378.479 91.271,377.542 88.413 C 376.019 83.767,370.957 80.996,365.701 81.931 C 361.978 82.593,358.419 84.810,357.485 87.048 C 357.079 88.021,356.804 87.972,356.152 86.812 C 354.042 83.055,348.936 80.913,344.575 81.957 M202.107 82.845 C 202.069 83.033,202.041 90.313,202.045 99.022 L 202.053 114.858 205.132 114.912 L 208.211 114.966 208.211 98.734 L 208.211 82.502 205.194 82.502 C 202.478 82.502,202.170 82.537,202.107 82.845 M293.497 94.086 C 293.582 106.899,293.601 107.101,294.965 109.834 C 298.217 116.352,308.938 117.538,314.402 111.985 C 316.476 109.878,316.325 109.853,316.325 112.301 C 316.325 115.182,316.057 114.956,319.474 114.956 L 322.385 114.956 322.385 98.729 L 322.385 82.502 319.355 82.502 L 316.325 82.502 316.321 91.251 C 316.315 104.601,315.523 107.193,310.765 109.442 C 309.084 110.237,305.627 110.632,305.279 110.068 C 305.212 109.961,305.004 109.873,304.817 109.873 C 304.156 109.873,302.467 108.866,301.661 107.992 C 299.661 105.822,299.534 104.905,299.522 92.522 L 299.511 82.502 296.466 82.502 L 293.421 82.502 293.497 94.086 M259.726 87.398 C 261.215 88.014,261.537 88.202,262.284 88.897 C 266.773 93.069,267.498 101.143,263.874 106.605 C 260.206 112.134,250.998 111.363,248.096 105.284 C 244.776 98.326,247.567 89.046,253.470 87.415 C 255.125 86.957,258.639 86.948,259.726 87.398 " stroke="none" fill="#000000" fill-rule="evenodd"></path></g></svg>