<svg id="svg" xmlns="http://www.w3.org/2000/svg" xmlns:xlink="http://www.w3.org/1999/xlink" width="240" height="280" viewBox="88, 56, 240, 280"><g id="svgg"><path id="path0" d="M261.179 58.471 C 232.393 61.903,211.440 84.464,208.793 114.877 C 208.173 122.007,207.721 121.578,215.427 121.175 C 221.066 120.880,224.488 120.316,231.462 118.532 C 254.026 112.762,271.475 90.027,272.560 64.988 L 272.863 57.985 268.495 58.052 C 266.093 58.089,262.801 58.278,261.179 58.471 M176.288 65.890 C 163.883 68.813,156.727 83.861,162.288 95.332 C 172.537 116.474,204.464 108.449,202.821 85.143 C 201.871 71.669,189.587 62.755,176.288 65.890 M262.134 68.750 C 262.576 69.466,261.134 76.118,259.727 79.853 C 254.230 94.436,242.405 105.180,226.960 109.625 C 219.101 111.887,218.742 111.664,220.342 105.523 C 225.227 86.767,239.201 73.117,257.664 69.067 C 261.482 68.229,261.798 68.207,262.134 68.750 M185.504 75.734 C 190.139 77.017,193.515 82.465,192.970 87.783 C 191.548 101.661,170.516 100.693,170.516 86.750 C 170.516 78.745,177.593 73.544,185.504 75.734 M160.452 131.719 C 130.555 136.403,105.038 162.814,98.044 196.314 C 97.592 198.477,96.963 201.241,96.646 202.457 C 95.805 205.678,95.866 230.710,96.725 234.889 C 98.420 243.139,100.580 251.142,101.963 254.300 C 102.318 255.111,103.204 257.211,103.932 258.968 C 124.452 308.514,184.397 333.403,238.084 314.669 C 267.186 304.513,290.683 281.646,301.125 253.317 C 318.814 205.328,295.915 148.229,253.455 134.447 C 208.202 119.759,165.981 157.043,161.919 215.278 C 161.401 222.714,162.929 226.044,166.859 226.044 C 170.170 226.044,171.363 224.263,171.718 218.791 C 174.413 177.234,195.622 147.003,225.740 141.788 C 257.138 136.351,287.569 161.788,295.318 199.947 C 305.963 252.365,271.183 301.051,216.708 309.989 C 208.382 311.355,207.972 311.044,213.422 307.498 C 238.541 291.158,249.318 252.347,238.040 218.844 C 232.057 201.072,222.217 184.945,209.582 172.204 C 202.888 165.453,202.421 165.429,198.438 171.635 L 196.917 174.006 202.771 179.777 C 246.745 223.126,241.147 292.790,192.629 305.976 C 169.960 312.136,139.108 296.380,120.791 269.287 C 90.318 224.213,107.323 159.680,154.054 143.063 C 159.421 141.155,171.415 140.562,180.098 141.776 C 182.044 142.048,189.253 136.577,189.204 134.865 C 189.137 132.537,169.174 130.353,160.452 131.719 " stroke="none" fill="#000000" fill-rule="evenodd"></path></g></svg>